<?xml version="1.0" encoding="UTF-8"?>
<svg id="_레이어_2" data-name="레이어 2" xmlns="http://www.w3.org/2000/svg" viewBox="0 0 959.68 126.82">
  <defs>
    <style>
      .cls-1 {
        fill: #fff;
      }

      .cls-2 {
        fill: #f4a452;
      }
    </style>
  </defs>
  <g id="_레이어_1-2" data-name="레이어 1">
    <g>
      <path class="cls-1" d="M36.84,63.51l-3.18,6.3h15.22l-.03-6.3c-.07-3.74-.06-7.71.02-11.91.09-4.21.11-8.21.05-12.01h-.39c-1.92,3.93-3.89,7.97-5.89,12.11-1.99,4.14-3.93,8.08-5.8,11.82ZM18.21,100.75H0L41.75,26.26h21.42l4.51,74.49h-18.82l-.03-17.12h-22.03l-8.58,17.12Z"/>
      <polygon class="cls-1" points="75.4 100.75 94.03 26.26 111.95 26.26 97.08 85.74 126.02 85.74 122.26 100.75 75.4 100.75"/>
      <path class="cls-1" d="M151.11,100.75h-16.02l18.62-74.49h19.32l3.79,32.13c.19,2.14.32,4.36.39,6.66.05,2.31.16,4.63.31,6.96h.5c1.31-2.33,2.58-4.65,3.79-6.96,1.21-2.3,2.44-4.52,3.72-6.66l19.45-32.13h19.42l-18.62,74.49h-16.32l6.38-25.53c.47-1.87,1.06-3.93,1.78-6.16.73-2.23,1.49-4.5,2.3-6.81.82-2.3,1.63-4.57,2.45-6.79.83-2.24,1.57-4.26,2.22-6.06h-.4l-10.65,17.82-16.83,27.22h-9.81l-3.3-27.22-1.56-17.82h-.39c-.25,1.8-.52,3.82-.82,6.06-.29,2.23-.6,4.49-.95,6.79-.34,2.31-.71,4.58-1.1,6.81-.39,2.24-.82,4.29-1.29,6.16l-6.38,25.53Z"/>
      <path class="cls-1" d="M257.02,86.73h0c4.94,0,9.36-2.12,13.26-6.35,3.9-4.24,6.76-10,8.58-17.28,1.82-7.27,1.81-12.91-.03-16.92-1.84-4-5.23-6-10.17-6s-9.31,2-13.11,6c-3.8,4.01-6.61,9.65-8.43,16.92-1.82,7.28-1.86,13.04-.12,17.28,1.74,4.23,5.08,6.35,10.02,6.35ZM253.17,102.15h0c-5.07,0-9.49-.88-13.26-2.64-3.76-1.77-6.71-4.34-8.87-7.71-2.17-3.38-3.46-7.49-3.88-12.32-.43-4.84.12-10.3,1.64-16.38,1.54-6.14,3.71-11.58,6.54-16.32,2.82-4.74,6.13-8.73,9.95-11.96,3.81-3.24,8.03-5.71,12.65-7.41,4.64-1.71,9.49-2.57,14.56-2.57s9.51.85,13.28,2.57c3.79,1.7,6.77,4.18,8.95,7.46,2.18,3.27,3.5,7.27,3.96,12.01.45,4.74-.09,10.15-1.61,16.21-1.52,6.08-3.7,11.54-6.54,16.38-2.85,4.83-6.19,8.93-10.04,12.32-3.84,3.37-8.09,5.94-12.74,7.71-4.64,1.76-9.5,2.64-14.58,2.64Z"/>
      <path class="cls-1" d="M320,26.26h18.23l9.61,35.64,3.18,16.51h.49c.47-4,1.06-8.47,1.76-13.41.7-4.94,1.6-9.65,2.72-14.12l6.16-24.63h17.02l-18.62,74.49h-18.23l-9.43-35.94-3.22-16.32h-.51c-.65,4.2-1.29,8.71-1.92,13.51-.63,4.8-1.51,9.47-2.65,14.01l-6.18,24.74h-17.02l18.62-74.49Z"/>
      <path class="cls-1" d="M399.31,86.34h2.4c3,0,5.85-.38,8.55-1.15,2.69-.77,5.18-2.05,7.47-3.85,2.28-1.8,4.29-4.19,6.03-7.15,1.74-2.97,3.17-6.66,4.27-11.07,1.1-4.4,1.52-8.07,1.25-11.01-.26-2.94-1.1-5.26-2.5-6.96-1.42-1.7-3.29-2.9-5.61-3.6-2.33-.7-5-1.05-8-1.05h-2.4l-11.46,45.85ZM377.78,100.75l18.62-74.49h21.43c5.67,0,10.65.7,14.94,2.1,4.29,1.4,7.71,3.61,10.26,6.62,2.56,3,4.16,6.82,4.8,11.46.64,4.64.15,10.19-1.47,16.66-1.62,6.48-3.92,12.09-6.91,16.83-2.99,4.74-6.48,8.65-10.49,11.71-4.01,3.07-8.45,5.36-13.34,6.86-4.88,1.5-10.02,2.25-15.43,2.25h-22.42Z"/>
      <path class="cls-1" d="M615.69,74.41l-10.39-48.15h19.02l2.08,16.51c.3,2.81.6,5.55.9,8.22s.62,5.47.96,8.4h.39c1.8-2.93,3.54-5.73,5.21-8.4s3.39-5.41,5.16-8.22l10.34-16.51h18.72l-34.57,48.15-6.59,26.34h-17.82l6.58-26.34Z"/>
      <path class="cls-1" d="M689.02,86.73h0c4.94,0,9.36-2.12,13.26-6.35,3.9-4.24,6.76-10,8.58-17.28,1.82-7.27,1.81-12.91-.03-16.92-1.84-4-5.23-6-10.17-6s-9.31,2-13.11,6c-3.8,4.01-6.61,9.65-8.43,16.92-1.82,7.28-1.86,13.04-.12,17.28,1.74,4.23,5.08,6.35,10.02,6.35ZM685.17,102.15h0c-5.07,0-9.49-.88-13.26-2.64-3.76-1.77-6.72-4.34-8.87-7.71-2.17-3.38-3.46-7.49-3.88-12.32-.43-4.84.11-10.3,1.64-16.38,1.54-6.14,3.72-11.58,6.54-16.32,2.82-4.74,6.13-8.73,9.95-11.96,3.81-3.24,8.03-5.71,12.65-7.41,4.64-1.71,9.49-2.57,14.56-2.57s9.51.85,13.28,2.57c3.78,1.7,6.77,4.18,8.95,7.46,2.18,3.27,3.5,7.27,3.96,12.01.45,4.74-.09,10.15-1.61,16.21-1.52,6.08-3.7,11.54-6.54,16.38-2.85,4.83-6.19,8.93-10.04,12.32-3.84,3.37-8.09,5.94-12.74,7.71-4.64,1.76-9.5,2.64-14.58,2.64Z"/>
      <path class="cls-1" d="M741.73,65.71l9.86-39.45h17.83l-10.34,41.35c-1.77,7.07-1.98,12.03-.63,14.87,1.36,2.83,4.11,4.24,8.25,4.24s7.54-1.41,10.42-4.24c2.88-2.84,5.2-7.79,6.97-14.87l10.34-41.35h17.22l-9.86,39.45c-3.15,12.61-7.94,21.84-14.37,27.68s-14.62,8.76-24.57,8.76-16.82-2.92-20.43-8.76c-3.62-5.84-3.85-15.07-.7-27.68Z"/>
      <path class="cls-1" d="M828.28,26.26h18.23l9.61,35.64,3.18,16.51h.49c.47-4,1.06-8.47,1.76-13.41.7-4.94,1.6-9.65,2.72-14.12l6.16-24.63h17.02l-18.62,74.49h-18.22l-9.43-35.94-3.22-16.32h-.51c-.65,4.2-1.29,8.71-1.92,13.51-.63,4.8-1.51,9.47-2.65,14.01l-6.18,24.74h-17.03l18.62-74.49Z"/>
      <path class="cls-1" d="M919.25,102.15h0c-5.2,0-9.84-.82-13.91-2.44-4.06-1.64-7.36-4.06-9.9-7.26-2.53-3.2-4.15-7.19-4.87-11.97-.71-4.77-.28-10.29,1.29-16.56,1.55-6.21,3.9-11.74,7.05-16.57,3.14-4.84,6.8-8.93,10.97-12.27,4.18-3.34,8.7-5.88,13.57-7.6,4.88-1.74,9.81-2.61,14.81-2.61,5.48,0,9.94.99,13.38,2.96,3.45,1.97,6.12,4.22,8.03,6.76l-12.36,11.41c-1.39-1.67-3-3.05-4.83-4.15-1.83-1.1-4.31-1.65-7.45-1.65-2.73,0-5.39.51-7.99,1.54-2.6,1.04-4.98,2.56-7.16,4.56-2.16,2-4.07,4.43-5.73,7.31-1.65,2.87-2.92,6.11-3.82,9.72-1.87,7.47-1.65,13.24.67,17.31,2.32,4.07,6.95,6.1,13.89,6.1,1.34,0,2.7-.17,4.08-.49,1.38-.33,2.55-.8,3.5-1.4l3-12.01h-11.8l3.66-14.62h27.73l-8.71,34.85c-3.24,2.54-7.27,4.69-12.09,6.46-4.81,1.76-9.82,2.64-15.03,2.64Z"/>
      <path class="cls-1" d="M615.69,74.41l-10.39-48.15h19.02l2.08,16.51c.3,2.81.6,5.55.9,8.22s.62,5.47.96,8.4h.39c1.8-2.93,3.54-5.73,5.21-8.4s3.39-5.41,5.16-8.22l10.34-16.51h18.72l-34.57,48.15-6.59,26.34h-17.82l6.58-26.34Z"/>
      <path class="cls-1" d="M689.02,86.73h0c4.94,0,9.36-2.12,13.26-6.35,3.9-4.24,6.76-10,8.58-17.28,1.82-7.27,1.81-12.91-.03-16.92-1.84-4-5.23-6-10.17-6s-9.31,2-13.11,6c-3.8,4.01-6.61,9.65-8.43,16.92-1.82,7.28-1.86,13.04-.12,17.28,1.74,4.23,5.08,6.35,10.02,6.35ZM685.17,102.15h0c-5.07,0-9.49-.88-13.26-2.64-3.76-1.77-6.72-4.34-8.87-7.71-2.17-3.38-3.46-7.49-3.88-12.32-.43-4.84.11-10.3,1.64-16.38,1.54-6.14,3.72-11.58,6.54-16.32,2.82-4.74,6.13-8.73,9.95-11.96,3.81-3.24,8.03-5.71,12.65-7.41,4.64-1.71,9.49-2.57,14.56-2.57s9.51.85,13.28,2.57c3.78,1.7,6.77,4.18,8.95,7.46,2.18,3.27,3.5,7.27,3.96,12.01.45,4.74-.09,10.15-1.61,16.21-1.52,6.08-3.7,11.54-6.54,16.38-2.85,4.83-6.19,8.93-10.04,12.32-3.84,3.37-8.09,5.94-12.74,7.71-4.64,1.76-9.5,2.64-14.58,2.64Z"/>
      <path class="cls-1" d="M741.73,65.71l9.86-39.45h17.83l-10.34,41.35c-1.77,7.07-1.98,12.03-.63,14.87,1.36,2.83,4.11,4.24,8.25,4.24s7.54-1.41,10.42-4.24c2.88-2.84,5.2-7.79,6.97-14.87l10.34-41.35h17.22l-9.86,39.45c-3.15,12.61-7.94,21.84-14.37,27.68s-14.62,8.76-24.57,8.76-16.82-2.92-20.43-8.76c-3.62-5.84-3.85-15.07-.7-27.68Z"/>
      <path class="cls-1" d="M828.28,26.26h18.23l9.61,35.64,3.18,16.51h.49c.47-4,1.06-8.47,1.76-13.41.7-4.94,1.6-9.65,2.72-14.12l6.16-24.63h17.02l-18.62,74.49h-18.22l-9.43-35.94-3.22-16.32h-.51c-.65,4.2-1.29,8.71-1.92,13.51-.63,4.8-1.51,9.47-2.65,14.01l-6.18,24.74h-17.03l18.62-74.49Z"/>
      <path class="cls-1" d="M919.25,102.15h0c-5.2,0-9.84-.82-13.91-2.44-4.06-1.64-7.36-4.06-9.9-7.26-2.53-3.2-4.15-7.19-4.87-11.97-.71-4.77-.28-10.29,1.29-16.56,1.55-6.21,3.9-11.74,7.05-16.57,3.14-4.84,6.8-8.93,10.97-12.27,4.18-3.34,8.7-5.88,13.57-7.6,4.88-1.74,9.81-2.61,14.81-2.61,5.48,0,9.94.99,13.38,2.96,3.45,1.97,6.12,4.22,8.03,6.76l-12.36,11.41c-1.39-1.67-3-3.05-4.83-4.15-1.83-1.1-4.31-1.65-7.45-1.65-2.73,0-5.39.51-7.99,1.54-2.6,1.04-4.98,2.56-7.16,4.56-2.16,2-4.07,4.43-5.73,7.31-1.65,2.87-2.92,6.11-3.82,9.72-1.87,7.47-1.65,13.24.67,17.31,2.32,4.07,6.95,6.1,13.89,6.1,1.34,0,2.7-.17,4.08-.49,1.38-.33,2.55-.8,3.5-1.4l3-12.01h-11.8l3.66-14.62h27.73l-8.71,34.85c-3.24,2.54-7.27,4.69-12.09,6.46-4.81,1.76-9.82,2.64-15.03,2.64Z"/>
      <path class="cls-2" d="M509.55,126.82c-5.18,0-10.08-1.17-14.53-3.52-10.73-5.68-17.25-17.42-18.35-33.07-1.05-14.87,2.93-31.69,11.22-47.35,8.29-15.67,19.95-28.43,32.83-35.92,13.56-7.89,26.93-9.11,37.66-3.43,10.73,5.68,17.25,17.42,18.35,33.07,1.05,14.87-2.93,31.69-11.22,47.35-8.29,15.67-19.95,28.43-32.83,35.92-7.94,4.62-15.82,6.95-23.14,6.95ZM543.85,9.02c-5.74,0-12.08,1.92-18.6,5.72-11.45,6.66-21.89,18.15-29.4,32.35h0c-7.51,14.2-11.14,29.3-10.2,42.51.88,12.43,5.7,21.58,13.59,25.75,7.88,4.17,18.15,3.01,28.93-3.26,11.45-6.66,21.89-18.15,29.4-32.35s11.14-29.3,10.2-42.51c-.88-12.43-5.7-21.58-13.59-25.75-3.11-1.65-6.59-2.46-10.33-2.46Z"/>
      <rect class="cls-1" x="485.45" y="59.2" width="82.87" height="8.61" rx="4.3" ry="4.3" transform="translate(829.41 -372.52) rotate(117.88)"/>
    </g>
  </g>
</svg>