<svg width="209" height="42" viewBox="0 0 209 42" fill="none" xmlns="http://www.w3.org/2000/svg">
<g clip-path="url(#clip0_2902_155412)">
<path d="M30.4034 28.9564C30.0228 28.8794 29.6292 28.9117 29.265 29.0498C28.9008 29.188 28.5797 29.4268 28.3362 29.7404C28.0928 30.0541 27.9362 30.4309 27.8834 30.8302C27.8306 31.2295 27.8835 31.6362 28.0364 32.0065C28.9406 34.1212 26.4158 36.032 24.6245 34.5956C24.3193 34.3465 23.9568 34.1846 23.5729 34.126C23.189 34.0674 22.7971 34.1141 22.4359 34.2615C22.0747 34.4089 21.7569 34.6519 21.5139 34.9663C21.2709 35.2808 21.1112 35.6558 21.0505 36.0542C20.7776 38.3329 17.6386 38.7142 16.7857 36.5862C16.6324 36.2124 16.3881 35.8866 16.0767 35.6409C15.7653 35.3953 15.3977 35.2383 15.0102 35.1855C14.6226 35.1327 14.2285 35.1858 13.8667 35.3397C13.5049 35.4936 13.188 35.7429 12.9473 36.063C11.5697 37.9029 8.6483 36.6748 8.99802 34.405C9.04612 34.0079 8.99236 33.6046 8.84218 33.236C8.692 32.8675 8.45074 32.5468 8.14286 32.3064C7.83498 32.066 7.47144 31.9146 7.08909 31.8673C6.70674 31.8201 6.31917 31.8789 5.9657 32.0376C3.85458 32.9242 1.93966 30.415 3.38118 28.6239H3.40677C3.64239 28.3114 3.79295 27.9389 3.84273 27.5453C3.89251 27.1517 3.83968 26.7514 3.68976 26.3862C3.53984 26.0211 3.29833 25.7045 2.99047 25.4696C2.68261 25.2346 2.3197 25.0899 1.93966 25.0506C1.45876 25.0108 1.00557 24.8007 0.655808 24.4553C0.306046 24.1099 0.080901 23.6502 0.0179934 23.153C-0.0449142 22.6558 0.0582264 22.1512 0.310181 21.7236C0.562136 21.296 0.947642 20.9711 1.40228 20.8034C1.76542 20.6729 2.0869 20.4408 2.3314 20.1327C2.5759 19.8246 2.73394 19.4523 2.78815 19.0569C2.84237 18.6615 2.79066 18.2582 2.63871 17.8913C2.48676 17.5245 2.24046 17.2083 1.92686 16.9775C0.0887033 15.5987 1.31699 12.6815 3.59016 13.0318C3.97137 13.1107 4.36608 13.0799 4.73165 12.9426C5.09721 12.8053 5.41971 12.5667 5.6643 12.2526C5.90888 11.9386 6.06623 11.5611 6.11936 11.1608C6.17248 10.7605 6.11934 10.3528 5.9657 9.98163C5.06581 7.87135 7.58635 5.95615 9.37759 7.39255C9.68247 7.64162 10.0446 7.80358 10.4282 7.86242C10.8118 7.92126 11.2036 7.87493 11.5647 7.72802C11.9257 7.58111 12.2436 7.3387 12.4869 7.02481C12.7302 6.71092 12.8903 6.33643 12.9516 5.93841C13.2288 3.65524 16.3635 3.2784 17.2164 5.40198C17.3697 5.77578 17.614 6.10159 17.9254 6.34722C18.2368 6.59286 18.6044 6.74984 18.9919 6.80266C19.3795 6.85548 19.7736 6.80232 20.1354 6.64843C20.4972 6.49453 20.8141 6.24522 21.0548 5.92511C22.3897 4.0897 25.3069 5.32218 24.9572 7.58762C24.9082 7.98662 24.9622 8.39198 25.1134 8.76219C25.2647 9.13241 25.5079 9.45419 25.8182 9.69459C26.1284 9.93499 26.4945 10.0854 26.879 10.1304C27.2636 10.1753 27.6527 10.1133 28.0065 9.9506C30.1177 9.06393 32.0326 11.5732 30.5953 13.3643C30.3511 13.6733 30.1929 14.046 30.1379 14.4419C30.083 14.8378 30.1334 15.2418 30.2837 15.61C30.434 15.9782 30.6785 16.2966 30.9905 16.5307C31.3026 16.7647 31.6704 16.9054 32.0539 16.9376C32.5364 16.9759 32.9915 17.1858 33.3427 17.532C33.6939 17.8781 33.9198 18.3393 33.9823 18.8382C34.0449 19.337 33.9403 19.843 33.6862 20.2712C33.4321 20.6993 33.044 21.0235 32.587 21.1891C32.2238 21.3189 31.9021 21.5504 31.6574 21.8581C31.4127 22.1659 31.2545 22.5379 31.2002 22.9331C31.146 23.3284 31.1978 23.7315 31.3499 24.0981C31.502 24.4647 31.7486 24.7805 32.0624 25.0107C33.9006 26.3895 32.6723 29.3066 30.4034 28.9564Z" fill="#E08F00"/>
<path d="M13.9776 27.2849L8.09631 20.6748L10.0283 18.8172L14.1993 23.5033L24.1919 14.7031L25.8936 16.7912L13.9776 27.2849Z" fill="white"/>
</g>
<path d="M190.225 34.5894C190.225 34.5894 190.83 28.6374 191.435 22.6854C192.019 16.7334 192.624 10.7814 192.624 10.7814L182.505 10.76L182.964 6.53603L197.882 6.57869C197.882 6.57869 197.172 13.576 196.505 20.5947C195.795 27.592 195.107 34.568 195.107 34.568L190.225 34.5894ZM205.581 16.7974H208.23L207.855 21.0214H205.184L203.87 34.952H198.967C198.967 34.952 199.697 27.6774 200.385 20.4027C201.074 13.128 201.783 5.87469 201.783 5.87469L206.603 5.89603L205.581 16.7974Z" fill="#E08F00"/>
<path d="M180.94 5.83199C180.94 5.83199 180.377 11.016 179.814 16.2213C179.25 21.4053 178.666 26.5893 178.666 26.5893L173.826 26.6107C173.826 26.6107 174.41 21.4053 174.994 16.2C175.557 11.016 176.142 5.83199 176.142 5.83199H180.94ZM160.139 25.6933L159.471 31.4107C159.471 31.4107 164.207 31.3893 168.943 31.3893C173.721 31.4107 178.478 31.3893 178.478 31.3893L178.019 35.6133C178.019 35.6133 172.031 35.6347 166.043 35.6133C160.055 35.6347 154.109 35.6133 154.109 35.6133L155.319 25.6933H160.139ZM154.401 14.7067C154.589 13.2773 154.965 12.0187 155.528 10.9093C156.091 9.82133 156.801 8.90399 157.677 8.13599C158.491 7.38933 159.492 6.77066 160.66 6.36533C161.704 5.98133 162.935 5.78933 164.228 5.78933C165.501 5.76799 166.648 6.02399 167.712 6.38666C168.693 6.81333 169.549 7.38933 170.258 8.15733C170.905 8.94666 171.385 9.86399 171.677 10.952C172.01 12.0827 172.073 13.32 171.906 14.7493C171.739 16.1147 171.405 17.352 170.863 18.4187C170.3 19.528 169.59 20.4453 168.756 21.2133C167.859 21.9813 166.878 22.5787 165.772 22.984C164.604 23.368 163.414 23.6027 162.121 23.6027C160.827 23.6027 159.659 23.368 158.678 22.9627C157.593 22.5573 156.738 21.9387 156.091 21.192C155.403 20.424 154.881 19.5067 154.631 18.3973C154.318 17.3307 154.255 16.072 154.401 14.7067ZM162.622 19.3573C163.102 19.336 163.644 19.2507 164.186 19.016C164.666 18.824 165.104 18.504 165.543 18.0987C165.918 17.6933 166.273 17.2453 166.586 16.648C166.836 16.0507 167.003 15.4107 167.087 14.6853C167.191 13.9813 167.149 13.32 167.003 12.744C166.857 12.168 166.628 11.6987 166.335 11.2507C166.022 10.888 165.626 10.5467 165.188 10.3547C164.729 10.1413 164.228 10.0347 163.707 10.0133C163.185 10.0347 162.663 10.12 162.184 10.3547C161.683 10.5253 161.245 10.888 160.848 11.2507C160.431 11.656 160.055 12.168 159.826 12.7227C159.513 13.2987 159.325 13.9813 159.221 14.664C159.158 15.3893 159.179 16.072 159.367 16.6053C159.45 17.224 159.701 17.6933 160.035 18.0773C160.327 18.504 160.681 18.824 161.14 19.0373C161.599 19.2293 162.079 19.3573 162.622 19.3573Z" fill="#E08F00"/>
<path d="M145.868 27.592L146.076 25.9493C146.076 25.9493 141.632 25.992 137.209 25.992C132.786 25.9707 128.363 25.9707 128.363 25.9707L128.822 22.728C128.822 22.728 134.434 22.7493 140.047 22.7707C145.68 22.792 151.313 22.792 151.313 22.792L150.291 30.8133C150.291 30.8133 145.868 30.792 141.445 30.8133C137.021 30.8133 132.577 30.8133 132.577 30.8133L132.369 32.4133C132.369 32.4133 136.875 32.4133 141.403 32.4133C145.909 32.4133 150.437 32.4133 150.437 32.4133L150.041 35.6347C150.041 35.6347 144.282 35.6347 138.544 35.6347C132.786 35.6347 127.048 35.6347 127.048 35.6347L128.154 27.592C128.154 27.592 132.577 27.592 137 27.592C141.424 27.592 145.868 27.592 145.868 27.592ZM136.583 12.232C139.233 12.232 141.173 12.616 142.425 13.4053C143.594 14.1733 144.115 15.3253 143.948 16.7973C143.573 19.784 140.673 21.2987 135.394 21.2987C130.074 21.2773 127.653 19.7627 128.071 16.7547C128.3 15.2827 129.072 14.1947 130.553 13.384C131.951 12.616 133.954 12.2107 136.583 12.232ZM139.755 6.74933L145.993 6.77066L145.43 11.0373C145.43 11.0373 141.09 11.016 136.771 10.9947C132.431 11.016 128.133 10.9733 128.133 10.9733L128.717 6.70666L134.956 6.72799L135.29 4.23199L140.088 4.25333L139.755 6.74933ZM152.169 15.8587L151.522 21.192H146.661L148.643 5.74666H153.441L152.711 11.5707L155.382 11.592L154.86 15.8587H152.169ZM136.145 15.5813C135.269 15.5813 134.559 15.6667 133.913 15.7947C133.287 15.9867 132.974 16.2853 132.911 16.776C132.849 17.288 133.078 17.5867 133.662 17.7147C134.246 17.8853 134.935 17.992 135.832 17.992C136.229 17.992 136.646 17.9707 137.042 17.9067C137.418 17.9067 137.731 17.8213 138.023 17.7573C138.336 17.672 138.586 17.5013 138.795 17.3307C138.983 17.224 139.087 17.0533 139.129 16.7973C139.149 16.584 139.108 16.3493 138.962 16.2C138.774 16.072 138.565 15.9227 138.315 15.7947C138.002 15.7307 137.668 15.7093 137.313 15.624C136.875 15.624 136.521 15.6027 136.145 15.5813Z" fill="#E08F00"/>
<path d="M101.532 22.9414L101.198 25.0534H114.989L115.26 22.9627L120.08 22.984L118.306 35.6347C118.306 35.6347 112.423 35.6347 106.518 35.6347C100.614 35.6347 94.7091 35.6347 94.7091 35.6347L96.6495 22.9627L101.532 22.9414ZM107.979 10.504C107.853 11.208 107.666 11.912 107.415 12.68L113.862 17.3734L110.837 21L104.828 16.5627C103.889 17.544 102.7 18.4187 101.344 19.1867C99.946 19.9547 98.3603 20.552 96.4826 21L95.0221 17.16C99.9251 16.0294 102.658 13.8107 103.18 10.4614L103.931 5.51202L108.709 5.53336L107.979 10.504ZM122.542 5.64002L120.309 21.4054L115.511 21.384L117.785 5.61869L122.542 5.64002ZM114.05 31.3894L114.384 29.2774L100.572 29.256L100.238 31.3894H114.05Z" fill="#E08F00"/>
<path d="M74.5335 16.0507L79.8747 16.072L81.523 6.23735L86.3009 6.25869C86.3009 6.25869 85.1742 13.32 84.0058 20.4027C82.8792 27.4854 81.7108 34.5467 81.7108 34.5467H66.5635C66.5635 34.5467 67.7736 27.464 68.9628 20.3814C70.1938 13.2987 71.3831 6.19469 71.3831 6.19469L76.1401 6.21602L74.5335 16.0507ZM91.3917 34.9307L86.5304 34.9094L88.7211 21.192L84.59 22.7067L85.2994 18.312L89.4096 16.776L91.2039 5.57602L96.0026 5.55469C96.0026 5.55469 94.8551 12.8934 93.7076 20.232C92.5601 27.5707 91.3917 34.9307 91.3917 34.9307ZM79.1654 20.36L73.8242 20.3387L72.155 30.28H77.5588L79.1654 20.36Z" fill="#E08F00"/>
<path d="M66.7304 23.8374L64.7274 35.6134C64.7274 35.6134 58.1552 35.6347 51.5831 35.6134C45.0318 35.6134 38.4596 35.6134 38.4596 35.6134L40.6503 23.816C40.6503 23.816 47.1808 23.816 53.6695 23.7947C60.1999 23.8374 66.7304 23.8374 66.7304 23.8374ZM55.8393 5.78936L54.8796 11.2294L57.9049 10.4614L58.7812 5.46936H63.1835L60.2417 22.2587L55.8185 22.1947L57.1329 14.8347L54.0868 15.624L53.0018 21.6827H39.774L42.7367 5.76803L55.8393 5.78936ZM67.0016 22.216H62.5158L65.4159 5.49069L69.86 5.51203L67.0016 22.216ZM44.7188 28.04L44.1137 31.3254L60.5755 31.368L61.1179 28.0827L44.7188 28.04ZM45.0109 17.3734L49.3298 17.416L50.6442 10.0987L46.3462 10.056L45.0109 17.3734Z" fill="#E08F00"/>
<defs>
<clipPath id="clip0_2902_155412">
<rect width="34" height="34" fill="white" transform="translate(0 4)"/>
</clipPath>
</defs>
</svg>
